<?xml version="1.0" encoding="utf-8"?>
<!-- Generator: Adobe Illustrator 26.0.1, SVG Export Plug-In . SVG Version: 6.00 Build 0)  -->
<svg version="1.1" id="Layer_1" xmlns="http://www.w3.org/2000/svg" xmlns:xlink="http://www.w3.org/1999/xlink" x="0px" y="0px"
	 width="24px" height="24px" viewBox="0 0 24 24" style="enable-background:new 0 0 24 24;" xml:space="preserve">
<style type="text/css">
	.st0{fill:#FFFFFF;}
</style>
<circle class="st0" cx="15.5" cy="9.5" r="1.5"/>
<circle class="st0" cx="8.5" cy="9.5" r="1.5"/>
<path class="st0" d="M12,2C6.5,2,2,6.5,2,12s4.5,10,10,10c5.5,0,10-4.5,10-10S17.5,2,12,2z M12,20c-4.4,0-8-3.6-8-8s3.6-8,8-8
	s8,3.6,8,8S16.4,20,12,20z M12,16c-1.5,0-2.8-0.8-3.4-2H6.9c0.8,2,2.8,3.5,5.1,3.5s4.3-1.5,5.1-3.5h-1.7C14.8,15.2,13.5,16,12,16z"
	/>
</svg>
