<?xml version="1.0" encoding="utf-8"?>
<svg version="1.1" id="Layer_1" xmlns="http://www.w3.org/2000/svg" xmlns:xlink="http://www.w3.org/1999/xlink" x="0px" y="0px"
	 width="157.7px" height="38.5px" viewBox="0 0 157.7 38.5" style="enable-background:new 0 0 157.7 38.5;" xml:space="preserve">
<style type="text/css">
	.st0{fill:#9D0005;}
</style>
<path d="M65.3,24.6c0,10.3-4.6,13.9-17.6,13.9H18.6C4.5,38.5,0,33.9,0,24.4V14.1C0,4.6,4.5,0,18.6,0h26.6c9.4,0,19.4,1.7,19.4,10.4
	v1.4H58c0-7-3-7.6-20.4-7.6H19.3c-6.8,0-12.2,1.5-12.2,8v14.2c0,6.6,5.5,8,12.2,8h27.6c7.1,0,11.4-1.8,11.4-7v-3.8H31.6v-4.2h33.8
	v5.2H65.3z"/>
<path class="st0" d="M67.6,31.7h8.1v6.5h-8.1V31.7z"/>
<path class="st0" d="M79.4,0.3h7.1v37.8h-7.1V0.3z"/>
<path class="st0" d="M90.5,14.1C90.5,4.6,95,0,109.1,0h30c14.1,0,18.6,4.6,18.6,14.1v10.3c0,9.5-4.5,14.1-18.6,14.1h-30
	c-14.1,0-18.6-4.6-18.6-14.1V14.1z M150.6,12.1c0-6.6-5.5-8-12.2-8h-28.6c-6.8,0-12.2,1.5-12.2,8v14.2c0,6.6,5.5,8,12.2,8h28.6
	c6.8,0,12.2-1.5,12.2-8V12.1z"/>
</svg>
