<?xml version="1.0" encoding="utf-8"?>
<svg version="1.1" id="Layer_1" xmlns="http://www.w3.org/2000/svg" xmlns:xlink="http://www.w3.org/1999/xlink" x="0px" y="0px"
	 viewBox="0 0 48 48" style="enable-background:new 0 0 48 48;" xml:space="preserve">
<style type="text/css">
	.st0{fill:#FFFFFF;}
</style>
<path class="st0" d="M38.9,26c0.1-0.6,0.1-1.3,0.1-2s-0.1-1.3-0.1-2l4.2-3.3c0.4-0.3,0.5-0.8,0.2-1.3l-4-6.9
	c-0.3-0.4-0.8-0.6-1.2-0.4l-5,2c-1-0.8-2.2-1.5-3.4-2L29,4.8C28.9,4.4,28.5,4,28,4h-8c-0.5,0-0.9,0.4-1,0.8l-0.8,5.3
	c-1.2,0.5-2.4,1.2-3.4,2l-5-2c-0.4-0.2-1,0-1.2,0.4l-4,6.9c-0.3,0.4-0.1,1,0.2,1.3l4.2,3.3C9.1,22.7,9,23.3,9,24s0.1,1.3,0.1,2
	l-4.2,3.3c-0.4,0.3-0.5,0.8-0.2,1.3l4,6.9c0.3,0.4,0.8,0.6,1.2,0.4l5-2c1,0.8,2.2,1.5,3.4,2l0.8,5.3c0.1,0.5,0.5,0.8,1,0.8h8
	c0.5,0,0.9-0.4,1-0.8l0.8-5.3c1.2-0.5,2.3-1.2,3.4-2l5,2c0.5,0.2,1,0,1.2-0.4l4-6.9c0.3-0.4,0.1-1-0.2-1.3L38.9,26z M24,31
	c-3.9,0-7-3.1-7-7s3.1-7,7-7s7,3.1,7,7S27.9,31,24,31z"/>
</svg>
