<?xml version="1.0" encoding="utf-8"?>
<svg version="1.1" id="Layer_1" xmlns="http://www.w3.org/2000/svg" xmlns:xlink="http://www.w3.org/1999/xlink" x="0px" y="0px"
	 viewBox="0 0 48 48" style="enable-background:new 0 0 48 48;" xml:space="preserve">
<style type="text/css">
	.st0{fill:#FFFFFF;}
</style>
<path class="st0" d="M24,14c5.5,0,10,4.5,10,10c0,1.3-0.3,2.5-0.7,3.6l5.8,5.9c3-2.5,5.4-5.8,6.9-9.5C42.5,15.2,34,9,24,9
	c-2.8,0-5.5,0.5-8,1.4l4.3,4.3C21.5,14.3,22.7,14,24,14z M4,8.6l4.6,4.6L9.5,14C6.2,16.6,3.6,20,2,24c3.5,8.8,12,15,22,15
	c3.1,0,6.1-0.6,8.8-1.7l0.8,0.8l5.8,5.8l2.5-2.5L6.6,6L4,8.6z M15.1,19.6l3.1,3.1C18.1,23.1,18,23.6,18,24c0,3.3,2.7,6,6,6
	c0.5,0,0.9-0.1,1.3-0.1l3.1,3.1c-1.3,0.6-2.8,1-4.4,1c-5.5,0-10-4.5-10-10C14,22.4,14.4,20.9,15.1,19.6z M23.7,18l6.3,6.3V24
	c0-3.3-2.7-6-6-6H23.7z"/>
</svg>
