<?xml version="1.0" encoding="utf-8"?>
<svg version="1.1" id="Layer_1" xmlns="http://www.w3.org/2000/svg" xmlns:xlink="http://www.w3.org/1999/xlink" x="0px" y="0px"
	 viewBox="0 0 48 48" style="enable-background:new 0 0 48 48;" xml:space="preserve">
<style type="text/css">
	.st0{fill:#FFFFFF;}
</style>
<path class="st0" d="M24,9C14,9,5.5,15.2,2,24c3.5,8.8,12,15,22,15s18.5-6.2,22-15C42.5,15.2,34,9,24,9z M24,34c-5.5,0-10-4.5-10-10
	s4.5-10,10-10s10,4.5,10,10S29.5,34,24,34z M24,18c-3.3,0-6,2.7-6,6s2.7,6,6,6s6-2.7,6-6S27.3,18,24,18z"/>
</svg>
