<?xml version="1.0" encoding="utf-8"?>
<svg version="1.1" id="Layer_1" xmlns="http://www.w3.org/2000/svg" xmlns:xlink="http://www.w3.org/1999/xlink" x="0px" y="0px"
	 viewBox="0 0 48 48" style="enable-background:new 0 0 48 48;" xml:space="preserve">
<style type="text/css">
	.st0{fill:#000000;}
</style>
<path class="st0" d="M22,36h4v-4h-4V36z M24,4C13,4,4,13,4,24s9,20,20,20s20-9,20-20S35,4,24,4z M24,40c-8.8,0-16-7.2-16-16
	S15.2,8,24,8s16,7.2,16,16S32.8,40,24,40z M24,12c-4.4,0-8,3.6-8,8h4c0-2.2,1.8-4,4-4s4,1.8,4,4c0,4-6,3.5-6,10h4c0-4.5,6-5,6-10
	C32,15.6,28.4,12,24,12z"/>
</svg>
