<?xml version="1.0" encoding="utf-8"?>
<svg version="1.1" id="Layer_1" xmlns="http://www.w3.org/2000/svg" xmlns:xlink="http://www.w3.org/1999/xlink" x="0px" y="0px"
	 viewBox="0 0 24 24" style="enable-background:new 0 0 24 24;" xml:space="preserve">
<path d="M18.5,16H7c-2.2,0-4-1.8-4-4s1.8-4,4-4h12.5c1.4,0,2.5,1.1,2.5,2.5S20.9,13,19.5,13H9c-0.6,0-1-0.4-1-1s0.4-1,1-1h9.5V9.5H9
	c-1.4,0-2.5,1.1-2.5,2.5s1.1,2.5,2.5,2.5h10.5c2.2,0,4-1.8,4-4s-1.8-4-4-4H7C4,6.5,1.5,9,1.5,12S4,17.5,7,17.5h11.5V16z"/>
</svg>
